<!DOCTYPE svg PUBLIC "-//W3C//DTD SVG 1.1//EN" "http://www.w3.org/Graphics/SVG/1.1/DTD/svg11.dtd">
<!-- Uploaded to: SVG Repo, www.svgrepo.com, Transformed by: SVG Repo Mixer Tools -->
<svg fill="#f3ecec" version="1.1" id="Capa_1" xmlns="http://www.w3.org/2000/svg" xmlns:xlink="http://www.w3.org/1999/xlink" width="800px" height="800px" viewBox="0 0 470.5 470.5" xml:space="preserve" stroke="#f3ecec">
<g id="SVGRepo_bgCarrier" stroke-width="0"/>
<g id="SVGRepo_tracerCarrier" stroke-linecap="round" stroke-linejoin="round"/>
<g id="SVGRepo_iconCarrier"> <g> <g> <rect x="290.349" y="206.973" width="27.371" height="230.054"/> <path d="M53.858,0v470.5h34.118V34.118h294.548v42.657h-11.941V46.922v-0.313H101.056v423.665h269.527v-13.517V431.17v-28.005 h11.941v67.108h34.117V0H53.858z M192.035,448.955h-51.227v-253.91h51.227V448.955z M260.397,448.955H209.17v-253.91h51.227 V448.955z M329.647,448.955h-51.227v-253.91h51.227V448.955L329.647,448.955z M329.692,178.408h-188.82v-45.025h188.82V178.408z M329.692,115.57h-188.82V70.545h188.82V115.57z M382.524,350.094h-11.941v-7.061v-25.588v-88.137V203.72v-73.874h11.941V350.094z "/> <rect x="152.734" y="206.973" width="27.372" height="230.054"/> <rect x="221.1" y="206.973" width="27.372" height="230.054"/> </g> </g> </g>
</svg>