<?xml version="1.0" standalone="no"?>
<!DOCTYPE svg PUBLIC "-//W3C//DTD SVG 20010904//EN"
 "http://www.w3.org/TR/2001/REC-SVG-20010904/DTD/svg10.dtd">
<svg version="1.0" xmlns="http://www.w3.org/2000/svg"
 width="450.000000pt" height="256.000000pt" viewBox="0 0 450.000000 256.000000"
 preserveAspectRatio="xMidYMid meet">
<metadata>
Created by potrace 1.10, written by Peter Selinger 2001-2011
</metadata>
<g transform="translate(0.000000,256.000000) scale(0.100000,-0.100000)"
fill="#000000" stroke="none">
<path d="M2145 2505 l-25 -24 0 -230 0 -229 31 -27 32 -26 284 3 285 3 24 28
c21 25 24 38 24 113 l0 84 318 0 317 0 0 -380 0 -380 -210 0 -210 0 -12 -27
c-6 -16 -17 -55 -23 -88 -7 -33 -23 -90 -36 -127 -34 -93 -37 -122 -41 -383
-4 -258 0 -278 66 -322 l34 -23 444 0 c493 0 493 0 533 65 19 31 20 49 20 419
0 428 0 426 -63 465 -32 20 -48 21 -256 21 l-221 0 0 395 0 395 -330 0 -330 0
0 119 c0 114 -1 121 -26 150 l-26 31 -289 0 -290 0 -24 -25z m609 -27 c13 -19
16 -58 16 -230 0 -195 -1 -209 -20 -228 -19 -19 -33 -20 -288 -20 -226 0 -271
2 -290 16 -22 15 -22 19 -22 234 0 185 2 221 16 234 13 14 54 16 294 16 277 0
279 0 294 -22z m1176 -1083 c26 -22 50 -74 50 -105 0 -20 -5 -20 -255 -20
-221 0 -255 -2 -255 -15 0 -13 33 -15 253 -14 l252 2 3 -314 c3 -338 -1 -374
-45 -408 -25 -21 -37 -21 -482 -21 -417 0 -458 2 -477 18 -42 33 -44 51 -44
319 l0 258 31 90 c17 50 36 117 41 150 6 33 12 66 14 73 3 10 92 12 448 10
428 -3 445 -4 466 -23z"/>
<path d="M2514 2095 c4 -24 16 -30 16 -7 0 12 -4 22 -9 22 -5 0 -8 -7 -7 -15z"/>
<path d="M2540 2095 c0 -8 5 -15 10 -15 6 0 10 7 10 15 0 8 -4 15 -10 15 -5 0
-10 -7 -10 -15z"/>
<path d="M2570 2095 c0 -8 5 -15 10 -15 6 0 10 7 10 15 0 8 -4 15 -10 15 -5 0
-10 -7 -10 -15z"/>
<path d="M2600 2089 c0 -11 5 -17 10 -14 6 3 10 13 10 21 0 8 -4 14 -10 14 -5
0 -10 -9 -10 -21z"/>
<path d="M2630 2089 c0 -11 5 -17 10 -14 6 3 10 13 10 21 0 8 -4 14 -10 14 -5
0 -10 -9 -10 -21z"/>
<path d="M3644 1365 c-4 -9 -2 -21 4 -27 15 -15 44 -1 40 19 -4 23 -36 29 -44
8z"/>
<path d="M3744 1366 c-8 -21 3 -36 27 -36 15 0 20 6 17 22 -4 27 -35 37 -44
14z"/>
<path d="M3844 1366 c-8 -21 3 -36 27 -36 15 0 20 6 17 22 -4 27 -35 37 -44
14z"/>
<path d="M3750 1210 c0 -5 5 -10 10 -10 6 0 10 -113 10 -320 l0 -321 -310 3
c-290 3 -310 2 -310 -14 0 -10 5 -18 10 -18 6 0 10 5 10 10 0 7 103 10 306 10
l305 -1 -1 322 c0 228 3 325 11 335 9 11 6 14 -15 14 -14 0 -26 -4 -26 -10z"/>
<path d="M3305 1060 c-82 -83 -145 -150 -140 -150 6 0 73 63 150 140 l140 140
142 -142 c79 -79 143 -138 143 -133 0 6 -64 74 -143 153 l-142 142 -150 -150z"/>
<path d="M3328 1043 l-127 -126 -2 -156 -1 -156 96 -3 96 -3 0 83 0 83 65 -3
65 -4 0 -79 0 -79 95 0 95 0 0 158 0 157 -127 127 -128 128 -127 -127z m237
-17 c52 -52 95 -102 95 -110 0 -21 21 -31 31 -15 5 8 8 -37 7 -111 l-2 -125
-3 108 -4 107 -26 0 c-24 0 -25 -1 -10 -13 15 -10 17 -27 15 -117 l-3 -105
-55 0 -55 0 -5 55 c-3 30 -11 65 -19 78 -10 20 -10 26 2 40 23 27 28 62 9 62
-16 1 -16 1 -1 10 22 13 13 60 -15 80 -25 18 -117 21 -140 4 -23 -16 -37 -69
-23 -83 8 -8 6 -11 -7 -11 -14 0 -16 -3 -7 -13 6 -8 8 -17 4 -20 -3 -4 -2 -7
4 -7 6 0 16 -13 21 -29 8 -23 7 -32 -4 -42 -8 -6 -14 -28 -14 -48 0 -76 -6
-82 -69 -79 l-56 3 -3 109 c-2 81 1 112 10 118 9 5 8 8 -6 8 -15 0 -16 3 -6
15 7 8 9 15 4 15 -5 0 3 11 18 24 15 12 24 27 20 31 -4 5 1 5 11 2 10 -4 16
-3 13 1 -8 14 42 65 55 56 9 -5 10 -2 6 9 -4 11 -1 17 9 17 8 0 18 8 21 17 11
29 37 51 60 52 15 1 52 -29 118 -93z m-129 -76 c8 0 14 -10 14 -25 0 -18 -5
-25 -19 -25 -11 0 -23 -4 -26 -10 -4 -6 5 -10 19 -10 22 0 26 -4 26 -30 0 -27
-3 -30 -30 -30 l-30 0 0 71 c0 61 2 70 16 65 9 -3 22 -6 30 -6z m84 -60 l0
-70 -30 0 c-27 0 -30 3 -30 30 0 23 4 30 20 30 11 0 20 5 20 11 0 6 -9 9 -20
6 -17 -4 -20 0 -20 23 0 28 2 30 53 39 4 0 7 -30 7 -69z"/>
<path d="M2995 2004 c-69 -217 -55 -195 -114 -177 -41 13 -53 14 -65 4 -22
-19 -64 -153 -49 -158 26 -9 105 -78 124 -110 12 -19 24 -32 27 -29 5 5 -31
52 -97 126 -34 39 -39 61 -16 80 23 19 61 4 104 -40 l38 -39 16 50 c12 38 13
57 5 74 -8 18 0 52 41 178 28 85 54 162 57 171 4 10 1 16 -9 16 -10 0 -29 -44
-62 -146z m-74 -214 c14 0 19 -7 19 -30 0 -23 -5 -30 -19 -30 -10 0 -24 7 -31
15 -7 8 -18 15 -24 15 -21 0 -39 18 -31 30 5 7 19 10 37 6 17 -3 39 -6 49 -6z"/>
<path d="M2026 1988 c60 -41 67 -59 22 -52 -18 3 -40 0 -48 -6 -13 -9 -12 -12
4 -25 11 -8 31 -15 45 -15 18 0 22 -3 14 -11 -17 -17 -62 1 -83 35 -20 34 -57
56 -92 56 -21 0 -98 -69 -98 -89 0 -6 19 9 43 34 24 25 51 45 60 45 21 0 22
-14 2 -30 -8 -7 -15 -17 -15 -23 0 -5 -15 -27 -34 -48 -30 -33 -57 -102 -44
-114 2 -2 31 9 63 24 106 50 226 85 288 85 31 -1 57 3 57 8 0 4 -27 8 -60 8
l-60 0 0 36 c0 46 -12 68 -54 93 -54 34 -63 24 -10 -11z m-32 -132 c-19 -13
-104 -46 -117 -46 -15 0 -6 24 24 61 l30 39 41 -21 c37 -19 39 -22 22 -33z"/>
<path d="M2150 1830 c-14 -5 -68 -22 -120 -38 -52 -17 -125 -44 -162 -60 l-66
-30 9 -44 c11 -50 55 -121 69 -113 17 10 11 55 -11 84 -17 24 -19 32 -9 50 16
31 42 22 54 -17 13 -48 29 -40 22 12 l-7 43 49 21 c41 18 55 19 83 10 27 -8
47 -7 85 4 46 13 49 16 49 48 0 37 -8 42 -45 30z"/>
<path d="M1545 1738 c-15 -22 -15 -23 16 -26 39 -4 44 1 27 27 -16 27 -23 26
-43 -1z"/>
<path d="M1770 1714 c0 -9 5 -14 12 -12 18 6 21 28 4 28 -9 0 -16 -7 -16 -16z"/>
<path d="M1993 1703 c-24 -9 -13 -20 17 -15 17 2 30 8 30 13 0 10 -27 11 -47
2z"/>
<path d="M2080 1702 c0 -5 14 -12 30 -14 19 -3 29 -1 27 6 -4 14 -57 21 -57 8z"/>
<path d="M2716 1664 c-19 -18 -20 -36 -4 -52 8 -8 5 -14 -16 -21 -32 -13 -43
-37 -28 -62 16 -24 15 -29 -3 -29 -18 0 -20 -45 -2 -59 6 -5 29 -25 51 -44 37
-32 38 -35 27 -68 -6 -20 -13 -57 -15 -84 -4 -47 -6 -50 -68 -93 -34 -24 -86
-66 -113 -93 -28 -27 -53 -49 -56 -49 -4 0 -18 17 -31 38 -62 93 -215 215
-322 256 -40 15 -47 22 -44 42 2 13 -1 22 -7 22 -8 -2 -95 -275 -118 -367 -3
-11 -8 -6 -16 14 -6 17 -42 108 -79 202 -58 151 -70 173 -89 173 -21 0 -20 -5
28 -112 28 -62 71 -160 96 -218 26 -58 49 -108 53 -113 3 -4 25 57 49 135 44
147 71 228 77 228 2 0 30 -14 61 -31 126 -68 186 -116 291 -234 35 -41 42 -55
43 -94 l2 -46 9 50 c8 40 18 56 47 78 20 15 70 53 111 86 74 58 75 58 108 44
19 -8 39 -12 45 -10 7 3 3 8 -8 12 -67 23 -63 17 -49 87 23 106 20 121 -32
173 -34 33 -44 49 -36 57 12 12 46 -6 82 -44 11 -12 20 -17 20 -10 0 6 -20 26
-45 44 -36 27 -44 39 -45 64 0 45 21 59 58 40 31 -16 80 -61 100 -91 7 -11 6
-6 -2 11 -8 17 -39 49 -70 72 -42 32 -53 46 -49 62 3 11 9 23 14 26 12 7 11
24 0 24 -5 0 -17 -7 -25 -16z"/>
<path d="M2000 1655 c0 -9 5 -15 11 -13 6 2 11 8 11 13 0 5 -5 11 -11 13 -6 2
-11 -4 -11 -13z"/>
<path d="M2092 1659 c2 -6 8 -10 13 -10 5 0 11 4 13 10 2 6 -4 11 -13 11 -9 0
-15 -5 -13 -11z"/>
<path d="M2060 1650 c0 -5 5 -21 12 -35 10 -22 9 -28 -3 -36 -12 -7 -11 -9 3
-9 26 0 29 14 13 54 -15 35 -25 46 -25 26z"/>
<path d="M2960 1637 c0 -9 5 -17 11 -19 7 -2 14 -37 17 -81 2 -43 9 -80 13
-83 10 -6 10 115 0 161 -6 31 -41 49 -41 22z"/>
<path d="M1412 1608 c-19 -19 -14 -46 9 -53 30 -10 58 19 43 43 -14 22 -36 26
-52 10z"/>
<path d="M2105 1551 c-4 -18 -22 -44 -43 -61 -20 -16 -31 -30 -25 -30 22 0 72
51 78 81 4 17 5 33 2 35 -3 3 -8 -8 -12 -25z"/>
<path d="M2020 1535 c7 -8 18 -15 25 -15 7 0 18 7 25 15 11 13 7 15 -25 15
-32 0 -36 -2 -25 -15z"/>
<path d="M1574 1525 c-8 -19 3 -35 26 -35 19 0 30 17 23 38 -6 17 -42 15 -49
-3z"/>
<path d="M1900 1526 c0 -18 48 -79 74 -96 42 -26 46 -25 46 5 0 18 -9 28 -34
40 -18 9 -43 25 -54 35 -20 19 -32 25 -32 16z"/>
<path d="M1873 1460 c0 -30 2 -43 4 -27 2 15 2 39 0 55 -2 15 -4 2 -4 -28z"/>
<path d="M1830 1395 c0 -4 7 -19 15 -34 35 -69 165 -69 200 -1 13 25 13 29 -1
34 -23 9 -24 8 -24 -13 0 -27 -37 -51 -78 -51 -46 0 -72 16 -72 45 0 18 -5 25
-20 25 -11 0 -20 -2 -20 -5z"/>
<path d="M2356 1333 c-12 -12 -6 -33 9 -33 8 0 15 6 15 14 0 17 -14 28 -24 19z"/>
<path d="M1590 1289 c-132 -82 -245 -202 -296 -314 -36 -78 -30 -130 25 -227
52 -91 137 -197 179 -223 17 -11 31 -25 32 -31 0 -5 19 -20 43 -31 l42 -22
-43 0 c-48 -1 -55 -11 -65 -96 -6 -49 -6 -49 8 -20 8 17 14 38 15 47 1 55 21
58 170 28 88 -18 114 -19 261 -10 90 5 206 14 257 21 81 10 92 14 92 31 0 18
-5 19 -77 13 -43 -4 -121 -15 -175 -26 -106 -21 -144 -24 -152 -10 -6 9 20 15
112 27 64 8 70 21 7 16 -39 -4 -45 -1 -45 15 0 10 11 35 25 55 14 20 25 46 25
58 l0 21 29 -20 c38 -28 66 -26 96 4 32 31 32 66 -1 99 -30 29 -65 34 -84 11
-18 -21 -24 -19 -61 18 -19 19 -41 36 -49 39 -23 8 -10 15 40 22 136 19 353
46 366 46 8 0 14 -10 14 -23 0 -34 -70 -280 -83 -294 -7 -7 -30 -19 -52 -27
-39 -14 -39 -15 -10 -15 17 -1 46 2 67 5 l36 6 47 190 c26 104 45 191 43 194
-3 2 -141 -11 -308 -29 -216 -25 -305 -38 -311 -48 -16 -26 -9 -39 19 -39 46
0 146 -30 166 -50 25 -24 14 -49 -25 -57 l-31 -6 31 -13 c22 -9 31 -20 31 -37
0 -27 -17 -47 -40 -47 -13 0 -15 -7 -12 -29 3 -22 -1 -32 -17 -41 -12 -6 -26
-8 -31 -5 -6 3 -10 -5 -10 -20 0 -46 -37 -53 -144 -26 -50 13 -113 34 -141 48
-125 61 -315 313 -315 417 1 98 104 237 264 355 75 56 91 51 81 -26 -4 -32 -8
-64 -10 -73 -2 -8 -8 -67 -15 -130 -7 -63 -14 -117 -16 -119 -3 -4 10 -23 58
-79 24 -29 29 -31 58 -20 l32 11 -53 29 c-29 15 -57 34 -61 41 -16 25 0 211
37 425 3 17 2 32 -2 31 -4 0 -37 -18 -73 -40z m548 -611 c28 -28 7 -78 -33
-78 -42 0 -59 44 -29 74 18 19 45 21 62 4z"/>
<path d="M2444 1225 c-4 -9 -2 -21 4 -27 15 -15 44 -1 40 19 -4 23 -36 29 -44
8z"/>
<path d="M2070 1174 c0 -55 28 -156 51 -179 15 -15 11 16 -10 70 -10 28 -21
74 -24 104 -8 73 -17 76 -17 5z"/>
<path d="M2857 975 c-8 -8 -25 -31 -38 -52 -12 -21 -57 -73 -98 -116 -92 -95
-168 -137 -248 -137 -34 0 -52 -4 -48 -10 3 -5 27 -10 53 -10 100 0 239 97
337 235 62 88 82 130 42 90z"/>
<path d="M2078 953 c28 -2 76 -2 105 0 28 2 5 3 -53 3 -58 0 -81 -1 -52 -3z"/>
<path d="M2160 924 c0 -5 7 -18 15 -28 12 -16 15 -17 15 -4 0 8 -7 21 -15 28
-8 7 -15 9 -15 4z"/>
<path d="M1146 674 c-19 -18 -19 -20 -6 -45 6 -10 19 -19 30 -19 16 0 40 26
40 44 0 8 -31 36 -40 36 -5 0 -16 -7 -24 -16z"/>
<path d="M1770 658 c0 -4 14 -8 30 -8 17 0 30 2 30 4 0 2 -13 6 -30 8 -16 3
-30 1 -30 -4z"/>
<path d="M1853 643 c9 -2 25 -2 35 0 9 3 1 5 -18 5 -19 0 -27 -2 -17 -5z"/>
<path d="M1746 569 c6 -10 139 -32 161 -26 11 3 6 5 -12 6 -16 1 -58 7 -92 14
-34 8 -60 10 -57 6z"/>
<path d="M1007 553 c-10 -9 -8 -41 2 -47 16 -10 41 5 41 24 0 10 -7 21 -16 24
-19 7 -19 7 -27 -1z"/>
<path d="M1731 490 c9 -5 36 -12 60 -15 42 -5 41 -4 -11 10 -65 17 -70 17 -49
5z"/>
<path d="M1152 461 c-8 -4 -12 -19 -10 -32 4 -34 52 -34 56 0 3 20 -11 41 -28
41 -3 0 -11 -4 -18 -9z"/>
<path d="M2710 431 c-16 -32 -12 -41 20 -41 32 0 38 14 16 43 -17 22 -23 22
-36 -2z"/>
<path d="M2332 366 c2 -46 7 -71 16 -74 10 -3 12 9 6 59 -9 90 -26 101 -22 15z"/>
<path d="M2561 296 c-15 -18 -3 -46 20 -46 25 0 35 26 19 45 -15 19 -24 19
-39 1z"/>
<path d="M2782 278 c2 -15 10 -23 23 -23 13 0 21 8 23 23 3 18 -1 22 -23 22
-22 0 -26 -4 -23 -22z"/>
<path d="M1507 223 c-4 -38 -7 -85 -7 -105 l0 -38 -445 0 c-359 0 -445 -3
-445 -13 0 -11 314 -13 1710 -15 1496 -1 1710 1 1710 13 0 13 -109 15 -844 15
l-843 0 -7 61 c-3 34 -6 81 -6 105 l0 42 -51 -13 c-160 -42 -483 -45 -669 -5
-52 11 -95 20 -96 20 -1 0 -4 -30 -7 -67z m213 -3 c106 -15 358 -13 465 3 50
8 93 11 98 7 4 -3 10 -30 14 -58 10 -86 30 -82 -372 -82 -195 0 -360 3 -369 6
-12 5 -16 20 -16 59 0 29 3 61 7 70 7 19 1 19 173 -5z"/>
<path d="M3470 231 c-15 -28 -13 -31 20 -31 33 0 36 6 16 33 -17 22 -23 22
-36 -2z"/>
</g>
</svg>
